<svg  xmlns="http://www.w3.org/2000/svg" xmlns:xlink="http://www.w3.org/1999/xlink">
    <symbol id="twitter" viewBox="0 0 20 17">
        <path d="M17.9441 4.0482C17.9568 4.22586 17.9568 4.40355 17.9568 4.58121C17.9568 9.99996 13.8325 16.2436 6.29441 16.2436C3.97207 16.2436 1.81473 15.571 0 14.4036C0.329961 14.4416 0.647187 14.4543 0.989844 14.4543C2.90605 14.4543 4.67004 13.8071 6.07867 12.703C4.27664 12.665 2.76648 11.4848 2.24617 9.86039C2.5 9.89844 2.75379 9.92383 3.02031 9.92383C3.38832 9.92383 3.75637 9.87305 4.09898 9.78426C2.22082 9.40351 0.812148 7.75379 0.812148 5.76141V5.71066C1.35781 6.01523 1.99238 6.20559 2.66492 6.23094C1.56086 5.49488 0.837539 4.23855 0.837539 2.81723C0.837539 2.05582 1.04055 1.35785 1.3959 0.748711C3.41367 3.23602 6.44668 4.86035 9.84766 5.03805C9.78422 4.73348 9.74613 4.41625 9.74613 4.09898C9.74613 1.84008 11.5736 0 13.8451 0C15.0253 0 16.0913 0.494922 16.84 1.29441C17.7664 1.11676 18.6547 0.774102 19.4416 0.30457C19.137 1.25637 18.4898 2.05586 17.6395 2.56344C18.4644 2.47465 19.2639 2.24617 19.9999 1.92895C19.4416 2.74109 18.7436 3.46441 17.9441 4.0482Z" />
    </symbol>
    <symbol id="facebook" viewBox="0 0 10 19">
        <path d="M9.34469 10.5025L9.86325 7.12348H6.62096V4.93071C6.62096 4.00627 7.07388 3.10517 8.526 3.10517H10V0.228284C10 0.228284 8.66239 0 7.38349 0C4.71337 0 2.96806 1.61841 2.96806 4.54817V7.12348H0V10.5025H2.96806V18.6711H6.62096V10.5025H9.34469Z" />
    </symbol>  
   <symbol id="linkedin" viewBox="0 0 56 56">
        <path d="M52 0H3.9875C1.7875 0 0 1.8125 0 4.0375V51.9625C0 54.1875 1.7875 56 3.9875 56H52C54.2 56 56 54.1875 56 51.9625V4.0375C56 1.8125 54.2 0 52 0ZM16.925 48H8.625V21.275H16.9375V48H16.925ZM12.775 17.625C10.1125 17.625 7.9625 15.4625 7.9625 12.8125C7.9625 10.1625 10.1125 8 12.775 8C15.425 8 17.5875 10.1625 17.5875 12.8125C17.5875 15.475 15.4375 17.625 12.775 17.625ZM48.0375 48H39.7375V35C39.7375 31.9 39.675 27.9125 35.425 27.9125C31.1 27.9125 30.4375 31.2875 30.4375 34.775V48H22.1375V21.275H30.1V24.925H30.2125C31.325 22.825 34.0375 20.6125 38.075 20.6125C46.475 20.6125 48.0375 26.15 48.0375 33.35V48Z" />
    </symbol>
    <symbol id="youtube" viewBox="0 0 70 48">
        <path d="M67.7068 7.51038C66.9217 4.55412 64.6084 2.22587 61.6713 1.43575C56.3475 0 34.9999 0 34.9999 0C34.9999 0 13.6524 0 8.32853 1.43575C5.39141 2.226 3.07816 4.55412 2.29303 7.51038C0.866531 12.8687 0.866531 24.0485 0.866531 24.0485C0.866531 24.0485 0.866531 35.2282 2.29303 40.5866C3.07816 43.5429 5.39141 45.7741 8.32853 46.5643C13.6524 48 34.9999 48 34.9999 48C34.9999 48 56.3474 48 61.6713 46.5643C64.6084 45.7741 66.9217 43.5429 67.7068 40.5866C69.1333 35.2282 69.1333 24.0485 69.1333 24.0485C69.1333 24.0485 69.1333 12.8687 67.7068 7.51038ZM28.018 34.1989V13.8981L45.8604 24.0488L28.018 34.1989Z" />
    </symbol>
    <symbol id="pinterest" viewBox="0 0 62 64">
        <path d="M62 32C62 49.125 48.125 63 31 63C27.8 63 24.725 62.5125 21.825 61.6125C23.0875 59.55 24.975 56.175 25.675 53.4875C26.05 52.0375 27.6 46.1125 27.6 46.1125C28.6125 48.0375 31.5625 49.675 34.7 49.675C44.05 49.675 50.7875 41.075 50.7875 30.3875C50.7875 20.15 42.425 12.4875 31.675 12.4875C18.3 12.4875 11.1875 21.4625 11.1875 31.25C11.1875 35.8 13.6125 41.4625 17.475 43.2625C18.0625 43.5375 18.375 43.4125 18.5125 42.85C18.6125 42.425 19.1375 40.3125 19.375 39.3375C19.45 39.025 19.4125 38.75 19.1625 38.45C17.9 36.8875 16.875 34.0375 16.875 31.375C16.875 24.5375 22.05 17.925 30.875 17.925C38.4875 17.925 43.825 23.1125 43.825 30.5375C43.825 38.925 39.5875 44.7375 34.075 44.7375C31.0375 44.7375 28.75 42.225 29.4875 39.1375C30.3625 35.45 32.05 31.475 32.05 28.8125C32.05 26.4375 30.775 24.45 28.125 24.45C25.0125 24.45 22.5125 27.6625 22.5125 31.975C22.5125 34.725 23.4375 36.575 23.4375 36.575C23.4375 36.575 20.375 49.55 19.8125 51.975C19.1875 54.65 19.4375 58.425 19.7 60.875C8.175 56.3625 0 45.1375 0 32C0 14.875 13.875 1 31 1C48.125 1 62 14.875 62 32Z" />
    </symbol>
    <symbol id="select" viewBox="0 0 62 62">
        <path d="M31 0C13.8791 0 0 13.8791 0 31C0 48.1209 13.8791 62 31 62C48.1209 62 62 48.1209 62 31C62 13.8791 48.1209 0 31 0ZM31 6C44.8165 6 56 17.1814 56 31C56 44.8165 44.8186 56 31 56C17.1835 56 6 44.8186 6 31C6 17.1835 17.1814 6 31 6ZM48.5255 22.2834L45.7085 19.4436C45.1251 18.8555 44.1754 18.8516 43.5872 19.4351L25.9182 36.9621L18.4443 29.4275C17.8609 28.8394 16.9111 28.8355 16.323 29.4189L13.4831 32.2359C12.895 32.8192 12.8911 33.769 13.4746 34.3573L24.8223 45.7967C25.4056 46.3849 26.3554 46.3887 26.9435 45.8052L48.5171 24.4048C49.1051 23.8213 49.1089 22.8715 48.5255 22.2834Z" fill="#FF6363"/>
    </symbol>
    <symbol id="book" viewBox="0 0 60 64">
        <path d="M58.2837 35.8363C59.38 33.98 60 32 60 29.6063C60 24.1044 55.3477 18.9088 49.2725 18.9088H44.7125C45.3275 17.3075 45.8187 15.3925 45.8187 13.0913C45.8187 3.992 41.1075 0 33.91 0C26.2091 0 26.6484 11.8666 24.94 13.575C22.0966 16.4184 18.7381 21.8809 16.345 24H4C1.79087 24 0 25.7909 0 28V58C0 60.2091 1.79087 62 4 62H12C13.8616 62 15.426 60.7282 15.8722 59.0062C21.4359 59.1314 25.2548 63.9987 38.0975 63.9987C39 63.9987 40 64 40.875 64C50.5146 64 54.8733 59.0721 54.9925 52.0838C56.6574 49.7806 57.5299 46.6935 57.16 43.71C58.3917 41.4035 58.868 38.6671 58.2837 35.8363ZM50.565 42.565C52.135 45.2062 50.7225 48.7412 48.8225 49.7612C49.785 55.8587 46.6215 57.9987 42.1825 57.9987H37.455C28.5001 57.9987 22.7014 53.2713 16 53.2713V30H17.365C20.91 30 25.8625 21.1387 29.1825 17.8175C32.7275 14.2725 31.5462 8.36375 33.91 6C39.8187 6 39.8187 10.1225 39.8187 13.0913C39.8187 17.9875 36.2738 20.1813 36.2738 24.9088H49.2725C51.9112 24.9088 53.9887 27.2725 54 29.6362C54.0113 31.9987 52.3975 34.3625 51.2163 34.3625C52.9024 36.1819 53.2626 40.017 50.565 42.565V42.565ZM11 54C11 55.6569 9.65688 57 8 57C6.34312 57 5 55.6569 5 54C5 52.3431 6.34312 51 8 51C9.65688 51 11 52.3431 11 54Z" fill="#00A2FF"/>
    </symbol>
    <symbol id="search" viewBox="0 0 64 64">
        <path d="M63.1296 55.3321L50.6662 42.8708C50.1037 42.3084 49.3411 41.9959 48.541 41.9959H46.5034C49.9537 37.5838 52.0038 32.0344 52.0038 25.9975C52.0038 11.6364 40.3655 0 26.0019 0C11.6384 0 0 11.6364 0 25.9975C0 40.3586 11.6384 51.9949 26.0019 51.9949C32.0398 51.9949 37.5903 49.9451 42.0031 46.4955V48.5328C42.0031 49.3327 42.3156 50.0951 42.8781 50.6576L55.3416 63.1188C56.5166 64.2937 58.4168 64.2937 59.5794 63.1188L63.1171 59.5817C64.2922 58.4068 64.2922 56.507 63.1296 55.3321ZM26.0019 41.9959C17.1638 41.9959 10.0007 34.8466 10.0007 25.9975C10.0007 17.1608 17.1513 9.99902 26.0019 9.99902C34.84 9.99902 42.0031 17.1483 42.0031 25.9975C42.0031 34.8341 34.8526 41.9959 26.0019 41.9959Z" fill="#5373FD"/>
    </symbol>
    <symbol id="quote_left" viewBox="0 0 64 56">
        <path d="M58 28H48V20C48 15.5875 51.5875 12 56 12H57C58.6625 12 60 10.6625 60 9V3C60 1.3375 58.6625 0 57 0H56C44.95 0 36 8.95 36 20V50C36 53.3125 38.6875 56 42 56H58C61.3125 56 64 53.3125 64 50V34C64 30.6875 61.3125 28 58 28ZM22 28H12V20C12 15.5875 15.5875 12 20 12H21C22.6625 12 24 10.6625 24 9V3C24 1.3375 22.6625 0 21 0H20C8.95 0 0 8.95 0 20V50C0 53.3125 2.6875 56 6 56H22C25.3125 56 28 53.3125 28 50V34C28 30.6875 25.3125 28 22 28Z" fill="#5373FD" />
    </symbol>
     <symbol id="instagram" viewBox="0 0 21 21">
<path d="M10.0078 4.87388C7.16852 4.87388 4.87834 7.16406 4.87834 10.0033C4.87834 12.8426 7.16852 15.1328 10.0078 15.1328C12.8471 15.1328 15.1373 12.8426 15.1373 10.0033C15.1373 7.16406 12.8471 4.87388 10.0078 4.87388ZM10.0078 13.3382C8.17298 13.3382 6.67298 11.8426 6.67298 10.0033C6.67298 8.16406 8.16851 6.66853 10.0078 6.66853C11.8471 6.66853 13.3426 8.16406 13.3426 10.0033C13.3426 11.8426 11.8426 13.3382 10.0078 13.3382ZM16.5435 4.66406C16.5435 5.32924 16.0078 5.86049 15.3471 5.86049C14.6819 5.86049 14.1506 5.32478 14.1506 4.66406C14.1506 4.00335 14.6864 3.46763 15.3471 3.46763C16.0078 3.46763 16.5435 4.00335 16.5435 4.66406ZM19.9408 5.87835C19.8649 4.27567 19.4989 2.85603 18.3247 1.68638C17.1551 0.516741 15.7355 0.15067 14.1328 0.0703125C12.481 -0.0234375 7.53012 -0.0234375 5.87834 0.0703125C4.28013 0.146205 2.86049 0.512277 1.68638 1.68192C0.512276 2.85156 0.150669 4.27121 0.0703124 5.87388C-0.0234375 7.52567 -0.0234375 12.4766 0.0703124 14.1283C0.146205 15.731 0.512276 17.1507 1.68638 18.3203C2.86049 19.49 4.27566 19.856 5.87834 19.9364C7.53012 20.0301 12.481 20.0301 14.1328 19.9364C15.7355 19.8605 17.1551 19.4944 18.3247 18.3203C19.4944 17.1507 19.8605 15.731 19.9408 14.1283C20.0346 12.4766 20.0346 7.53013 19.9408 5.87835ZM17.8069 15.9007C17.4587 16.7757 16.7846 17.4498 15.9051 17.8025C14.5881 18.3248 11.4632 18.2042 10.0078 18.2042C8.55244 18.2042 5.42298 18.3203 4.11048 17.8025C3.23549 17.4542 2.56138 16.7801 2.2087 15.9007C1.68638 14.5837 1.80692 11.4587 1.80692 10.0033C1.80692 8.54799 1.69085 5.41853 2.2087 4.10603C2.55692 3.23103 3.23102 2.55692 4.11048 2.20424C5.42745 1.68192 8.55244 1.80246 10.0078 1.80246C11.4632 1.80246 14.5926 1.68638 15.9051 2.20424C16.7801 2.55246 17.4542 3.22656 17.8069 4.10603C18.3292 5.42299 18.2087 8.54799 18.2087 10.0033C18.2087 11.4587 18.3292 14.5882 17.8069 15.9007Z" />
    </symbol>
    <symbol id="spotify" viewBox="0 0 25 24">
    <path d="M12.5 0C10.1266 0 7.80654 0.70378 5.83313 2.02233C3.85979 3.34094 2.32173 5.21511 1.41342 7.40778C0.505187 9.60052 0.267552 12.0133 0.730606 14.3411C1.19359 16.6689 2.33646 18.807 4.01471 20.4853C5.69295 22.1635 7.83118 23.3064 10.1589 23.7694C12.4867 24.2324 14.8995 23.9948 17.0922 23.0865C19.2849 22.1783 21.1591 20.6402 22.4777 18.6668C23.7962 16.6935 24.5 14.3734 24.5 12C24.5 8.81738 23.2357 5.76516 20.9853 3.51474C18.7348 1.26425 15.6826 0 12.5 0ZM18.0068 17.3057C17.9557 17.3905 17.8883 17.4643 17.8085 17.5228C17.7286 17.5813 17.638 17.6234 17.5417 17.6465C17.4455 17.6697 17.3456 17.6735 17.2479 17.6577C17.1501 17.6419 17.0565 17.6069 16.9725 17.5547C14.1569 15.8308 10.6133 15.4477 6.43776 16.3959C6.34275 16.4185 6.24425 16.4221 6.14784 16.4064C6.0515 16.3906 5.95914 16.3559 5.87635 16.3043C5.79348 16.2526 5.72171 16.185 5.66517 16.1054C5.60862 16.0257 5.56855 15.9357 5.54712 15.8404C5.52429 15.7448 5.52066 15.6457 5.53623 15.5486C5.55186 15.4516 5.58642 15.3586 5.63801 15.275C5.6896 15.1914 5.75725 15.1188 5.8369 15.0613C5.91663 15.0039 6.00689 14.9627 6.10253 14.9401C10.6708 13.8962 14.5974 14.3464 17.7578 16.2809C17.9264 16.384 18.0473 16.5498 18.094 16.7418C18.1407 16.9339 18.1093 17.1367 18.0068 17.3057ZM19.4721 14.0399C19.3383 14.2458 19.1304 14.3923 18.8916 14.4494C18.6528 14.5064 18.4012 14.4695 18.1888 14.3464C14.5474 12.3151 10.2486 11.8122 6.23664 12.9481C6.11182 13.0177 5.97296 13.0585 5.83034 13.0674C5.68765 13.0764 5.54481 13.0533 5.41224 12.9998C5.27967 12.9464 5.16079 12.864 5.06424 12.7586C4.96769 12.6532 4.89592 12.5275 4.85425 12.3909C4.81257 12.2541 4.80203 12.1098 4.82339 11.9685C4.84475 11.8271 4.89746 11.6924 4.97767 11.5741C5.05788 11.4558 5.16358 11.357 5.28694 11.2848C5.41036 11.2127 5.54831 11.1691 5.69072 11.1572C7.93004 10.5126 10.2756 10.322 12.5896 10.5967C14.9036 10.8713 17.1394 11.6057 19.1656 12.7566C19.3715 12.8904 19.518 13.0982 19.5751 13.337C19.6321 13.5759 19.5952 13.8275 19.4721 14.0399ZM19.5966 10.6401C15.7658 8.34155 9.35878 8.13085 5.66203 9.25138C5.37755 9.33779 5.07038 9.30758 4.80817 9.16744C4.54596 9.02737 4.35015 8.78886 4.26379 8.50436C4.17743 8.21994 4.20759 7.91276 4.3477 7.65052C4.48774 7.38834 4.72628 7.19251 5.01076 7.10617C9.25343 5.82283 16.2925 6.07184 20.7459 8.70548C20.9748 8.86935 21.1337 9.11336 21.1909 9.38905C21.2481 9.66468 21.1994 9.95178 21.0546 10.1933C20.9097 10.4347 20.6793 10.6127 20.4092 10.6919C20.139 10.7712 19.8489 10.7458 19.5966 10.6209V10.6401Z" />
    </symbol>
    <symbol id="google podcast" viewBox="0 0 25 24">
    <path d="M11 7.63641V11.2733V12.7269V16.3637H14.0001V12.7269V11.2733V7.63641H11Z" />
<path d="M2.00002 12.6823C2.82845 12.6823 3.50003 12.0107 3.50003 11.1823C3.50003 10.3538 2.82845 9.68225 2.00002 9.68225C1.17158 9.68225 0.5 10.3538 0.5 11.1823C0.5 12.0107 1.17158 12.6823 2.00002 12.6823Z" />
<path d="M2.00002 14.3178C2.82845 14.3178 3.50003 13.6462 3.50003 12.8178C3.50003 11.9893 2.82845 11.3177 2.00002 11.3177C1.17158 11.3177 0.5 11.9893 0.5 12.8178C0.5 13.6462 1.17158 14.3178 2.00002 14.3178Z" />
<path d="M3.50003 11.1823H0.5V12.8186H3.50003V11.1823Z" />
<path d="M23 14.3178C23.8285 14.3178 24.5 13.6462 24.5 12.8178C24.5 11.9893 23.8285 11.3177 23 11.3177C22.1716 11.3177 21.5 11.9893 21.5 12.8178C21.5 13.6462 22.1716 14.3178 23 14.3178Z" />
<path d="M23 12.6823C23.8285 12.6823 24.5 12.0107 24.5 11.1823C24.5 10.3538 23.8285 9.68225 23 9.68225C22.1716 9.68225 21.5 10.3538 21.5 11.1823C21.5 12.0107 22.1716 12.6823 23 12.6823Z" />
<path d="M21.5 12.8186H24.5V11.1823H21.5V12.8186Z" />
<path d="M7.18165 17.5912C8.01006 17.5912 8.68165 16.9196 8.68165 16.0912C8.68165 15.2628 8.01006 14.5912 7.18165 14.5912C6.35321 14.5912 5.68164 15.2628 5.68164 16.0912C5.68164 16.9196 6.35321 17.5912 7.18165 17.5912Z" />
<path d="M7.18165 19.2276C8.01006 19.2276 8.68165 18.5561 8.68165 17.7276C8.68165 16.8992 8.01006 16.2275 7.18165 16.2275C6.35321 16.2275 5.68164 16.8992 5.68164 17.7276C5.68164 18.5561 6.35321 19.2276 7.18165 19.2276Z" />
<path d="M8.68165 16.0912H5.68164V17.7276H8.68165V16.0912Z" />
<path d="M7.18165 7.77245C8.01006 7.77245 8.68165 7.10088 8.68165 6.27247C8.68165 5.44404 8.01006 4.77246 7.18165 4.77246C6.35321 4.77246 5.68164 5.44404 5.68164 6.27247C5.68164 7.10088 6.35321 7.77245 7.18165 7.77245Z" />
<path d="M7.18165 13.0902C8.01006 13.0902 8.68165 12.4187 8.68165 11.5902C8.68165 10.7618 8.01006 10.0902 7.18165 10.0902C6.35321 10.0902 5.68164 10.7618 5.68164 11.5902C5.68164 12.4187 6.35321 13.0902 7.18165 13.0902Z" />
<path d="M8.68165 6.27246H5.68164V11.6248H8.68165V6.27246Z" />
<path d="M17.8184 9.40975C18.6468 9.40975 19.3184 8.73818 19.3184 7.90974C19.3184 7.08131 18.6468 6.40973 17.8184 6.40973C16.99 6.40973 16.3184 7.08131 16.3184 7.90974C16.3184 8.73818 16.99 9.40975 17.8184 9.40975Z" />
<path d="M17.8184 7.77245C18.6468 7.77245 19.3184 7.10088 19.3184 6.27247C19.3184 5.44404 18.6468 4.77246 17.8184 4.77246C16.99 4.77246 16.3184 5.44404 16.3184 6.27247C16.3184 7.10088 16.99 7.77245 17.8184 7.77245Z" />
<path d="M16.3179 7.90882H19.3179V6.27246H16.3179V7.90882Z" />
<path d="M12.5 4.63643C13.3285 4.63643 14.0001 3.96486 14.0001 3.13642C14.0001 2.30799 13.3285 1.63641 12.5 1.63641C11.6716 1.63641 11 2.30799 11 3.13642C11 3.96486 11.6716 4.63643 12.5 4.63643Z" />
<path d="M12.5 3.00001C13.3285 3.00001 14.0001 2.32844 14.0001 1.50001C14.0001 0.671577 13.3285 0 12.5 0C11.6716 0 11 0.671577 11 1.50001C11 2.32844 11.6716 3.00001 12.5 3.00001Z" />
<path d="M11 3.13638H14.0001V1.5H11V3.13638Z" />
<path d="M12.5 24C13.3285 24 14.0001 23.3284 14.0001 22.5C14.0001 21.6716 13.3285 21 12.5 21C11.6716 21 11 21.6716 11 22.5C11 23.3284 11.6716 24 12.5 24Z" />
<path d="M12.5 22.3639C13.3285 22.3639 14.0001 21.6923 14.0001 20.8639C14.0001 20.0355 13.3285 19.3639 12.5 19.3639C11.6716 19.3639 11 20.0355 11 20.8639C11 21.6923 11.6716 22.3639 12.5 22.3639Z" />
<path d="M11 22.5003H14.0001V20.8639H11V22.5003Z" />
<path d="M17.8184 19.2276C18.6468 19.2276 19.3184 18.5561 19.3184 17.7276C19.3184 16.8992 18.6468 16.2275 17.8184 16.2275C16.99 16.2275 16.3184 16.8992 16.3184 17.7276C16.3184 18.5561 16.99 19.2276 17.8184 19.2276Z" />
<path d="M17.8184 13.9098C18.6468 13.9098 19.3184 13.2382 19.3184 12.4098C19.3184 11.5814 18.6468 10.9098 17.8184 10.9098C16.99 10.9098 16.3184 11.5814 16.3184 12.4098C16.3184 13.2382 16.99 13.9098 17.8184 13.9098Z" />
<path d="M16.3179 17.7271H19.3179V12.4088H16.3179V17.7271Z" />
<path d="M12.5 9.13646C13.3285 9.13646 14.0001 8.46482 14.0001 7.63645C14.0001 6.80802 13.3285 6.13641 12.5 6.13641C11.6716 6.13641 11 6.80802 11 7.63645C11 8.46482 11.6716 9.13646 12.5 9.13646Z" />
<path d="M12.5 17.8639C13.3285 17.8639 14.0001 17.1923 14.0001 16.3639C14.0001 15.5355 13.3285 14.8639 12.5 14.8639C11.6716 14.8639 11 15.5355 11 16.3639C11 17.1923 11.6716 17.8639 12.5 17.8639Z" />
</symbol>
<symbol id="tiktok" viewBox="0 0 24 24">
<path d="M6.33822 14.8445C6.45542 13.8741 6.85342 13.3307 7.60344 12.7737C8.67659 12.0194 10.0171 12.4461 10.0171 12.4461V9.91474C10.343 9.90641 10.669 9.92573 10.9914 9.97247V13.2301C10.9914 13.2301 9.65125 12.8034 8.5781 13.5581C7.82849 14.1147 7.42967 14.6584 7.31288 15.6289C7.30921 16.1558 7.4081 16.8446 7.86349 17.4402C7.7509 17.3825 7.63614 17.3167 7.5192 17.2428C6.51606 16.5692 6.33333 15.5586 6.33822 14.8445ZM16.5264 5.23424C15.7881 4.42529 15.509 3.60854 15.4081 3.03479H16.3367C16.3367 3.03479 16.1516 4.53918 17.501 6.01861L17.5197 6.0385C17.156 5.80972 16.8225 5.53968 16.5264 5.23424ZM21 7.52768V10.7198C21 10.7198 19.815 10.6734 18.938 10.4503C17.7135 10.1382 16.9264 9.65965 16.9264 9.65965C16.9264 9.65965 16.3827 9.31837 16.3388 9.29457V15.8863C16.3388 16.2533 16.2382 17.1699 15.9318 17.9344C15.5318 18.9345 14.9144 19.5909 14.8009 19.7251C14.8009 19.7251 14.05 20.6124 12.7254 21.21C11.5314 21.749 10.4831 21.7354 10.1697 21.749C10.1697 21.749 8.35753 21.8208 6.72686 20.761C6.37424 20.5274 6.04508 20.2629 5.74365 19.9708L5.75179 19.9767C7.38287 21.0364 9.19464 20.9646 9.19464 20.9646C9.5084 20.951 10.5567 20.9646 11.7503 20.4256C13.0738 19.828 13.8258 18.9407 13.8258 18.9407C13.9381 18.8065 14.5583 18.1501 14.9567 17.1496C15.2624 16.3855 15.3637 15.4685 15.3637 15.1015V8.51059C15.4076 8.53477 15.9509 8.87606 15.9509 8.87606C15.9509 8.87606 16.7384 9.35503 17.9629 9.66667C18.8403 9.88978 20.025 9.93619 20.025 9.93619V7.43485C20.4303 7.52573 20.7758 7.55031 21 7.52768Z" />
<path d="M20.0252 7.43485V9.93541C20.0252 9.93541 18.8405 9.889 17.9631 9.66589C16.7386 9.35386 15.9511 8.87528 15.9511 8.87528C15.9511 8.87528 15.4078 8.53399 15.3639 8.50981V15.1023C15.3639 15.4693 15.2634 16.3863 14.9569 17.1504C14.5569 18.1509 13.9395 18.8073 13.826 18.9415C13.826 18.9415 13.0747 19.8288 11.7505 20.4264C10.5569 20.9654 9.50859 20.9518 9.19483 20.9654C9.19483 20.9654 7.38306 21.0372 5.75198 19.9774L5.74384 19.9716C5.57163 19.8048 5.40953 19.6288 5.25834 19.4442C4.73784 18.8096 4.41879 18.0592 4.33862 17.8451C4.33848 17.8442 4.33848 17.8432 4.33862 17.8423C4.20961 17.4702 3.93858 16.5767 3.97561 15.7112C4.04113 14.1841 4.57831 13.2469 4.72034 13.0121C5.09649 12.3718 5.58572 11.7989 6.16626 11.3189C6.67855 10.9047 7.25921 10.5752 7.88443 10.3438C8.56031 10.0721 9.28406 9.92649 10.0169 9.91474V12.4461C10.0169 12.4461 8.67636 12.021 7.60363 12.7737C6.85361 13.3307 6.4556 13.8741 6.3384 14.8445C6.33352 15.5586 6.51624 16.5692 7.51857 17.2432C7.63551 17.3173 7.75027 17.3831 7.86286 17.4406C8.03797 17.6682 8.2511 17.8666 8.49364 18.0276C9.47278 18.6474 10.2932 18.6907 11.3423 18.2882C12.0419 18.019 12.5685 17.4125 12.8127 16.7405C12.9661 16.3208 12.9641 15.8984 12.9641 15.4615V3.03479H15.4058C15.5067 3.60854 15.7859 4.42529 16.5241 5.23424C16.8202 5.53968 17.1538 5.80972 17.5175 6.0385C17.6249 6.14966 18.1743 6.69923 18.8796 7.03662C19.2442 7.21102 19.6286 7.34464 20.0252 7.43485Z" />
<path d="M3.3667 17.0677V17.0697L3.42729 17.2339C3.42033 17.2148 3.39781 17.1567 3.3667 17.0677Z" />
<path d="M7.88461 10.3437C7.25939 10.5751 6.67873 10.9047 6.16644 11.3188C5.58572 11.7999 5.09661 12.374 4.72093 13.0155C4.57891 13.2495 4.04172 14.1876 3.9762 15.7146C3.93917 16.5801 4.2102 17.4737 4.33921 17.8458C4.33907 17.8467 4.33907 17.8476 4.33921 17.8485C4.4206 18.0607 4.73843 18.8112 5.25893 19.4477C5.41012 19.6322 5.57222 19.8083 5.74443 19.975C5.19268 19.6093 4.7006 19.1671 4.28427 18.6629C3.76825 18.0338 3.45001 17.2912 3.36699 17.072C3.36689 17.0704 3.36689 17.0688 3.36699 17.0673V17.0645C3.23758 16.6928 2.96573 15.7989 3.00358 14.9322C3.0691 13.4052 3.60628 12.4679 3.74831 12.2331C4.12388 11.5915 4.613 11.0174 5.19382 10.5364C5.706 10.1221 6.28669 9.79254 6.91199 9.56131C7.30202 9.40621 7.70833 9.29179 8.1239 9.22002C8.75019 9.11524 9.38984 9.10616 10.0191 9.19311V9.91469C9.2856 9.92619 8.56113 10.0718 7.88461 10.3437Z" />
<path d="M15.4078 3.03476H12.9661V15.4619C12.9661 15.8987 12.9661 16.32 12.8147 16.7408C12.5681 17.4125 12.0435 18.019 11.3444 18.2881C10.2948 18.6922 9.47442 18.6474 8.49569 18.0276C8.25273 17.8673 8.03905 17.6696 7.86328 17.4425C8.69713 17.8688 9.44349 17.8614 10.3681 17.5057C11.0668 17.2366 11.5922 16.6301 11.838 15.958C11.9919 15.5383 11.9898 15.1159 11.9898 14.6795V2.25H15.3615C15.3615 2.25 15.3236 2.55891 15.4078 3.03476ZM20.0252 6.74328V7.43483C19.6293 7.34447 19.2456 7.21085 18.8816 7.0366C18.1764 6.69921 17.627 6.14964 17.5195 6.03848C17.6442 6.11693 17.7736 6.1883 17.907 6.25222C18.7644 6.66255 19.6089 6.78502 20.0252 6.74328Z" />
</symbol>
</svg>